<?xml version="1.0" standalone="no"?>
<!DOCTYPE svg PUBLIC "-//W3C//DTD SVG 20010904//EN"
 "http://www.w3.org/TR/2001/REC-SVG-20010904/DTD/svg10.dtd">
<svg version="1.0" xmlns="http://www.w3.org/2000/svg"
 width="480.000000pt" height="480.000000pt" viewBox="0 0 480.000000 480.000000"
 preserveAspectRatio="xMidYMid meet">
<metadata>
Created by potrace 1.11, written by Peter Selinger 2001-2013
</metadata>
<g transform="translate(0.000000,480.000000) scale(0.100000,-0.100000)"
fill="#000000" stroke="none">
<path d="M3049 4738 c-22 -40 -14 -163 14 -244 15 -40 55 -121 80 -158 9 -15
9 -19 0 -23 -7 -3 -13 -11 -13 -19 0 -18 -5 -18 -70 6 -59 22 -262 75 -320 84
-34 5 -83 11 -165 21 -45 5 -266 6 -335 1 -254 -19 -547 -105 -780 -228 -88
-47 -228 -135 -256 -162 -6 -6 -22 -18 -34 -26 -59 -40 -240 -212 -310 -295
-132 -156 -245 -346 -325 -544 -41 -102 -95 -282 -110 -366 -3 -16 -10 -59
-17 -95 -14 -73 -17 -440 -5 -538 11 -88 43 -240 68 -323 16 -53 25 -69 40
-70 26 -1 95 -5 119 -7 11 -1 20 -6 20 -12 0 -5 -8 -7 -17 -4 -15 5 -15 4 -3
-4 8 -6 18 -8 24 -5 5 4 7 -1 3 -11 -4 -10 -7 -20 -7 -22 0 -3 -5 -2 -12 2 -7
5 -8 3 -4 -5 5 -7 11 -10 14 -7 3 3 12 1 19 -6 11 -9 16 -9 23 2 5 8 13 11 17
6 4 -5 3 -11 -3 -13 -6 -2 -20 -11 -30 -19 -10 -9 -13 -13 -6 -9 7 4 18 3 25
-3 22 -17 44 -20 44 -7 0 7 -8 12 -18 10 -10 -2 -21 0 -24 5 -3 4 3 7 12 6 10
-2 21 1 24 7 4 5 10 0 14 -12 6 -21 35 -30 35 -10 0 5 -4 7 -10 4 -6 -3 -7 1
-3 10 5 13 7 14 14 3 7 -10 9 -10 9 2 1 12 2 12 10 -2 11 -18 50 -14 50 6 0 6
5 4 10 -4 5 -8 10 -19 10 -25 0 -5 -5 -3 -10 5 -7 12 -9 10 -7 -8 2 -27 8 -28
24 -2 8 12 9 21 3 25 -6 3 -10 12 -10 18 0 8 3 8 9 -1 4 -8 12 -14 17 -15 5
-1 8 -4 7 -7 -15 -43 -15 -45 6 -20 12 16 16 29 10 34 -5 6 -9 14 -9 19 0 5 7
1 15 -7 13 -12 14 -20 5 -37 -7 -11 -9 -23 -7 -26 3 -2 8 5 12 16 4 14 11 18
23 14 15 -6 16 -5 2 12 -13 17 -13 18 0 9 25 -15 82 -14 76 2 -8 22 2 16 15
-7 9 -17 8 -20 -2 -14 -8 5 -10 4 -5 -3 4 -7 3 -12 -2 -12 -5 0 -9 -7 -9 -15
0 -10 6 -8 22 8 16 17 19 26 11 36 -9 12 -8 13 3 6 11 -6 13 -3 9 13 -4 12 -3
24 1 26 4 3 8 -13 8 -35 0 -21 -3 -39 -8 -39 -5 0 -9 -5 -9 -11 0 -8 4 -8 14
0 7 6 20 9 29 6 8 -4 21 2 28 12 15 21 89 27 86 8 -1 -5 7 -10 17 -10 15 0 21
8 23 33 3 26 0 34 -19 41 -13 5 -26 7 -30 4 -5 -2 -8 1 -8 7 0 6 10 8 25 4 15
-4 25 -2 25 5 0 6 8 8 17 5 17 -5 17 -5 0 6 -12 8 -15 16 -8 28 7 14 5 18 -7
19 -27 2 -51 9 -58 16 -8 8 32 1 48 -9 8 -5 9 -2 5 10 -4 10 -7 23 -7 29 0 7
-5 6 -11 -3 -9 -12 -10 -12 -7 -1 6 20 28 26 28 7 0 -20 17 -29 26 -15 4 8 3
9 -4 5 -8 -5 -12 0 -12 13 0 18 -32 38 -52 33 -5 -1 -8 3 -8 8 0 13 6 13 31 0
15 -9 19 -7 19 5 0 9 4 14 9 10 5 -3 13 -1 16 5 4 6 1 9 -7 8 -8 -2 -12 4 -10
15 3 17 -35 40 -50 30 -5 -2 -8 1 -8 7 0 6 10 8 25 4 16 -4 25 -2 25 6 0 6 4
9 9 5 5 -3 13 -1 16 5 4 6 1 9 -7 8 -7 -2 -12 3 -10 10 1 6 -3 12 -8 12 -6 0
-10 -6 -8 -14 2 -8 -1 -16 -6 -18 -12 -4 -16 41 -4 48 4 3 8 10 8 15 0 6 -6 7
-13 2 -16 -10 -41 -14 -32 -5 4 4 12 7 18 7 7 0 13 6 13 13 1 6 2 17 3 22 0 6
6 10 12 10 5 0 7 -4 4 -10 -3 -5 -4 -10 -1 -10 3 0 10 8 15 18 7 14 6 18 -7
19 -27 2 -51 9 -58 16 -8 8 32 1 48 -9 8 -5 9 -2 5 10 -4 10 -7 23 -7 29 0 7
-5 6 -11 -3 -9 -12 -10 -12 -7 -1 6 20 28 26 28 7 0 -20 17 -29 26 -15 4 8 3
9 -4 5 -8 -5 -12 0 -12 13 0 18 -32 38 -53 33 -4 -1 -7 2 -7 8 0 13 6 13 31 0
15 -9 19 -7 19 5 0 9 4 14 9 10 5 -3 13 0 17 6 4 8 3 9 -5 5 -6 -4 -14 0 -17
8 -6 16 -24 12 -24 -5 0 -6 5 -7 12 -3 7 5 8 3 4 -5 -12 -18 -21 -4 -22 33 0
21 4 33 13 33 9 0 10 -4 3 -11 -5 -5 -10 -14 -10 -20 0 -5 3 -6 7 -3 3 4 13 1
22 -5 9 -7 13 -8 9 -4 -4 5 -2 16 5 25 10 14 10 14 -4 3 -14 -11 -16 -9 -16
13 0 13 3 23 7 20 4 -3 14 3 21 12 12 15 12 16 -1 8 -8 -6 -17 -10 -20 -11 -3
0 -13 -4 -23 -9 -10 -4 -21 -5 -24 -1 -4 3 1 6 9 6 9 0 19 7 22 16 3 9 11 12
18 8 10 -5 10 -4 1 6 -10 11 -15 11 -28 0 -8 -7 -18 -10 -22 -6 -3 3 -1 6 6 6
7 0 9 5 5 12 -4 7 -3 8 4 4 7 -4 12 -1 12 9 0 9 -4 13 -10 10 -5 -3 -10 -1
-10 4 0 6 5 11 10 11 12 0 9 22 -5 33 -6 5 2 6 16 3 19 -4 31 0 40 12 11 14
11 15 -1 5 -8 -7 -17 -13 -21 -13 -12 0 -3 31 12 42 11 8 11 9 -3 5 -12 -4
-16 0 -14 17 1 12 6 28 11 35 6 10 4 12 -5 6 -9 -5 -10 -2 -6 13 4 11 2 23 -3
27 -6 3 -9 0 -8 -7 2 -7 2 -10 0 -5 -3 4 -10 4 -16 0 -7 -4 -7 -1 1 9 9 12 10
18 2 23 -7 4 -8 11 -1 18 14 18 14 29 -1 39 -10 8 -10 9 2 5 17 -4 21 -26 7
-44 -5 -7 -1 -15 12 -22 13 -8 22 -8 26 -1 4 6 1 9 -6 8 -16 -4 -18 31 -4 51
8 11 7 13 -3 7 -16 -10 -13 24 3 37 6 5 4 7 -5 4 -8 -2 -14 -9 -13 -14 3 -16
-35 -12 -41 4 -5 12 -4 13 7 5 8 -7 17 -9 20 -5 11 10 8 51 -3 58 -8 5 -7 12
1 22 10 12 10 16 -1 23 -11 7 -11 11 -1 23 8 11 9 17 1 22 -7 4 -8 11 -1 18
15 19 14 28 -6 43 -17 14 -16 14 4 4 22 -10 28 -5 24 23 0 4 4 7 10 7 5 0 7 5
4 10 -10 17 -24 11 -20 -9 3 -14 -1 -18 -16 -14 -28 8 -34 22 -7 16 17 -3 19
-2 9 5 -11 8 -11 10 0 14 11 4 12 10 2 25 -9 16 -9 23 0 32 8 8 8 14 2 19 -6
4 -11 14 -13 22 -1 10 2 9 13 -4 8 -11 13 -29 11 -42 -4 -18 -1 -21 17 -16 19
5 20 6 2 12 -17 6 -16 8 6 29 23 23 23 23 2 12 -20 -10 -35 1 -15 12 4 2 1 2
-5 1 -14 -4 -16 6 -13 45 1 17 -2 21 -12 15 -10 -6 -10 -4 1 9 11 14 11 20 0
34 -8 9 -9 14 -3 10 7 -4 17 0 24 8 11 13 8 14 -18 11 -26 -3 -29 0 -24 18 3
12 7 15 10 8 3 -10 7 -10 20 0 9 7 13 8 10 3 -4 -6 3 -11 15 -12 12 0 16 1 9
4 -6 3 -9 10 -6 15 5 7 2 8 -6 3 -10 -6 -12 -4 -7 8 3 10 2 17 -2 17 -5 0 -11
-6 -14 -12 -2 -7 -7 -10 -11 -7 -3 3 2 13 12 22 16 15 52 -19 562 -528 337
-337 536 -543 523 -540 -33 6 -28 -9 13 -43 38 -32 90 -49 137 -47 15 1 27 -3
27 -10 0 -16 24 -36 45 -39 9 -1 21 -9 26 -17 7 -11 9 -11 9 4 0 10 4 16 8 13
5 -3 15 6 22 19 7 13 18 22 23 18 6 -3 7 -1 3 6 -4 6 -11 9 -16 6 -5 -3 -12 0
-16 7 -4 7 -4 10 1 6 4 -4 13 0 20 9 9 13 14 13 20 3 6 -9 4 -11 -6 -5 -12 7
-12 6 -1 -7 8 -10 20 -14 30 -11 10 4 12 8 4 11 -7 2 -17 13 -24 25 l-11 22
23 -20 23 -20 -11 21 c-7 14 -7 25 0 35 8 11 9 11 5 -3 -3 -9 1 -22 9 -29 12
-10 13 -9 8 6 -5 12 -4 16 4 11 6 -3 14 -1 18 5 4 8 3 9 -4 5 -7 -4 -12 -2
-12 3 0 10 14 15 33 12 4 -1 10 6 13 14 3 8 11 12 17 8 5 -3 7 -1 4 4 -7 11
41 49 56 45 12 -3 8 5 -10 19 -11 9 -14 10 -9 2 5 -9 2 -11 -11 -7 -10 3 -14
2 -8 -3 6 -5 -2 -19 -21 -38 -31 -31 -31 -31 -31 -7 0 13 3 19 6 13 5 -8 14
-4 27 10 19 22 19 22 -6 15 -22 -6 -21 -5 5 10 17 9 33 22 37 28 6 8 8 8 8 0
0 -7 7 -15 16 -18 14 -5 15 -4 4 9 -7 8 -9 15 -4 15 5 0 2 5 -6 11 -12 8 -11
9 5 7 13 -2 19 2 17 12 -2 8 0 12 4 8 4 -4 16 2 26 15 15 17 19 18 16 5 -3
-16 -1 -18 25 -18 8 0 7 4 -3 10 -13 9 -13 11 0 20 20 13 28 12 27 -2 -1 -35
5 -48 21 -48 13 0 18 -7 17 -22 -1 -13 4 -44 12 -70 l13 -46 -285 -286 c-157
-157 -290 -286 -295 -286 -6 0 -10 -7 -10 -15 0 -8 -7 -15 -15 -15 -8 0 -15 3
-15 8 0 4 -13 16 -29 27 -16 10 -28 22 -26 25 2 3 -12 19 -31 35 -32 27 -48
55 -22 39 7 -4 8 -3 4 5 -4 6 -12 9 -17 5 -6 -3 -42 26 -80 65 -38 39 -69 68
-69 64 0 -3 -10 7 -22 23 -12 16 -26 32 -31 35 -4 3 -7 12 -5 19 2 7 -4 15
-12 17 -13 4 -13 3 0 -6 8 -6 10 -11 4 -11 -14 0 -54 47 -47 54 4 3 -1 6 -10
6 -15 0 -35 24 -35 43 0 5 -4 12 -8 15 -4 4 -4 1 0 -5 17 -31 -14 -7 -77 57
-37 38 -70 68 -72 67 -2 -1 -14 12 -26 28 -13 17 -33 38 -45 47 -12 10 -60 56
-108 103 -48 47 -91 83 -95 81 -5 -3 -9 -236 -9 -518 0 -282 -1 -519 -1 -525
-1 -10 -94 -12 -412 -12 -226 0 -415 -3 -420 -8 -8 -8 55 -117 86 -149 5 -6
21 -26 35 -44 62 -83 204 -231 311 -326 37 -32 192 -144 200 -144 3 0 9 -9 12
-20 3 -13 11 -18 25 -15 11 2 28 -4 38 -13 23 -20 75 -46 88 -43 5 1 6 -5 3
-13 -3 -8 1 -22 9 -33 14 -17 14 -16 4 5 -7 15 -7 22 0 22 5 0 10 -4 10 -10 0
-5 5 -9 11 -7 6 1 14 -5 16 -13 4 -13 3 -13 -7 0 -8 10 -10 11 -8 2 2 -8 7
-13 11 -13 4 1 15 1 25 1 14 0 15 2 2 10 -8 5 -10 10 -4 10 6 0 18 -8 25 -17
8 -9 9 -14 4 -11 -6 4 -19 0 -30 -9 -19 -13 -18 -14 10 -8 17 4 38 9 48 12 19
5 23 -12 5 -23 -7 -4 -8 -3 -4 4 5 8 2 10 -9 6 -19 -8 -14 -14 12 -18 10 -2
24 4 31 13 10 13 11 12 3 -9 -6 -17 -15 -24 -27 -22 -16 2 -16 1 -4 -7 9 -7
19 -6 27 1 12 9 17 5 14 -14 -1 -7 47 0 63 9 7 5 7 2 0 -8 -13 -16 -15 -51 -3
-43 5 2 5 12 2 20 -5 14 -3 15 15 5 11 -6 22 -16 24 -22 2 -7 15 -14 28 -16
31 -5 31 -4 21 -39 -10 -37 -6 -101 9 -139 7 -16 14 -40 16 -51 5 -40 33 -82
70 -105 42 -25 156 -48 194 -39 14 4 35 3 48 -2 13 -4 21 -4 18 1 -3 5 11 11
32 15 56 9 277 82 392 129 14 6 27 11 30 12 11 4 48 19 88 37 23 10 47 16 53
13 5 -4 8 -1 7 7 -2 7 4 13 12 14 24 2 50 15 45 24 -3 5 5 6 17 2 12 -3 19 -1
15 5 -3 5 0 10 8 10 8 0 12 -4 9 -9 -3 -4 0 -8 5 -8 6 0 11 -8 12 -17 0 -15 1
-16 7 -2 5 10 20 15 43 15 31 -1 35 2 33 22 -2 20 0 21 14 10 27 -20 28 -22 7
-14 -16 6 -18 5 -7 -5 9 -10 15 -10 24 -1 7 7 17 8 30 1 10 -5 18 -7 18 -3 0
3 8 0 18 -7 15 -13 16 -12 3 3 -7 10 -17 15 -22 12 -5 -3 -9 2 -9 10 0 9 -5
16 -11 16 -5 0 -7 -5 -4 -10 7 -11 -16 -10 -25 1 -3 3 -14 11 -25 18 -20 13
-9 10 32 -6 11 -4 14 -3 9 6 -10 16 16 10 29 -7 9 -11 13 -11 24 2 10 12 11
19 2 30 -8 10 -9 16 -1 21 6 4 9 1 8 -7 -2 -7 2 -12 9 -11 7 2 10 -3 7 -11 -4
-11 0 -13 15 -9 11 3 18 9 15 14 -3 5 0 9 6 9 6 0 8 -11 6 -24 -4 -23 -3 -24
20 -14 13 6 24 18 24 25 0 8 4 12 10 8 5 -3 7 -13 4 -23 -5 -14 -4 -14 4 -3 6
8 8 20 5 27 -2 6 1 15 8 20 8 5 10 3 4 -6 -5 -8 -3 -11 6 -8 8 3 13 11 11 17
-1 8 2 9 9 5 9 -5 10 -2 6 12 -7 18 -7 18 8 0 14 -18 20 -15 16 7 -1 5 3 6 8
2 6 -3 24 1 41 10 29 15 30 15 22 -7 -17 -48 1 -95 50 -136 24 -21 27 -27 16
-41 -11 -14 -11 -14 3 -4 13 11 23 8 57 -17 87 -62 341 -170 403 -170 10 0 20
-4 24 -9 3 -6 13 -10 23 -10 9 1 54 0 98 -1 80 -2 120 9 162 43 8 6 31 12 52
13 129 7 188 73 189 208 1 118 -44 184 -150 221 -86 31 -166 19 -479 -68 -88
-24 -211 -30 -231 -10 -11 11 13 88 36 113 8 9 13 19 10 22 -3 3 1 10 8 16 10
9 14 8 14 -3 0 -8 -5 -11 -11 -8 -6 3 -7 2 -3 -2 4 -5 14 -10 22 -11 14 -2 19
15 18 53 0 7 2 12 6 11 19 -2 31 3 26 12 -4 6 -3 10 2 9 22 -4 32 3 27 19 -5
14 -4 15 5 2 6 -8 11 -11 11 -7 0 4 10 3 21 -4 17 -8 20 -8 14 1 -5 9 -1 10
15 5 21 -7 22 -7 3 12 -18 20 -39 21 -27 1 4 -6 -2 -6 -15 1 -24 13 -29 23 -7
15 8 -3 17 0 21 6 5 8 13 6 28 -7 11 -10 17 -12 13 -5 -6 9 -1 11 17 8 22 -4
25 -1 22 17 -3 11 -10 24 -17 29 -7 4 -9 8 -4 8 6 0 21 -10 34 -23 l25 -22
-19 29 -19 29 30 -17 c17 -10 22 -12 13 -3 -20 16 -23 27 -8 27 5 0 24 9 42
21 18 12 25 19 16 15 -10 -3 -17 -1 -15 6 1 6 -4 13 -12 16 -9 3 -11 0 -6 -8
5 -9 4 -11 -4 -6 -18 12 -2 28 21 20 14 -4 18 -2 14 5 -6 10 0 13 20 10 9 -1
24 23 24 39 0 7 -5 10 -12 6 -7 -4 -8 -3 -4 5 11 17 29 2 23 -20 -3 -12 -1
-17 6 -12 7 4 8 0 4 -11 -4 -9 -3 -14 2 -11 10 6 9 44 -2 61 -7 12 -2 53 8 63
4 3 4 -8 1 -24 -3 -16 0 -35 7 -43 7 -8 11 -17 10 -19 -2 -1 0 -3 5 -2 4 0 6
7 4 16 -2 8 1 12 7 9 5 -4 12 -2 16 4 4 6 12 7 18 4 8 -5 8 -3 0 7 -15 15 -17
33 -4 24 5 -3 12 -1 16 5 4 6 11 8 16 4 5 -3 8 0 7 8 -2 7 3 12 10 10 8 -1 11
2 7 8 -3 6 -11 8 -16 5 -8 -5 -9 0 -9 33 0 4 11 6 25 6 14 -1 22 3 18 9 -4 6
0 8 10 4 10 -3 17 -2 17 2 0 17 -25 18 -38 2 -11 -14 -12 -13 -3 5 16 33 41
50 50 35 6 -9 10 -6 14 9 3 12 10 19 16 15 7 -4 8 0 4 11 -4 12 -3 15 6 10 6
-4 10 -4 9 1 -1 4 6 23 15 40 15 28 15 32 2 27 -9 -4 -15 -3 -14 2 1 5 1 16 0
24 -1 13 -2 13 -11 0 -5 -9 -5 -19 0 -26 6 -6 6 -15 2 -19 -4 -5 -1 -5 5 -1 9
5 11 2 6 -9 -4 -13 -8 -14 -14 -4 -4 7 -5 17 -3 21 5 8 -8 11 -36 9 -8 0 -5 4
8 11 23 11 30 28 12 28 -5 0 -10 -4 -10 -10 0 -13 -37 -13 -45 0 -9 15 -27 1
-21 -17 3 -8 1 -11 -4 -8 -6 3 -10 1 -10 -6 0 -7 -7 -4 -15 7 -15 19 -15 19
-34 -4 -21 -25 -32 -28 -28 -9 1 6 -3 11 -9 10 -6 -1 13 35 42 80 30 45 50 85
46 89 -4 4 -66 8 -138 9 l-131 2 -1 56 c-1 57 -13 131 -27 164 -11 25 15 22
59 -8 44 -30 48 -30 45 -7 -3 34 1 35 26 6 29 -34 84 -135 94 -172 l7 -27 18
27 c9 14 18 36 19 47 3 45 14 25 64 -114 13 -38 27 -77 30 -85 9 -23 19 36 18
108 0 34 0 62 2 62 1 0 11 -21 22 -46 11 -25 34 -65 51 -90 16 -25 30 -48 30
-51 0 -10 34 -32 49 -33 19 0 8 101 -19 171 -11 29 -18 54 -17 56 10 9 161
-212 153 -226 -2 -3 0 -28 3 -56 l7 -50 20 38 20 39 18 -64 c31 -112 65 -160
78 -110 15 56 -9 252 -47 382 -5 15 8 3 35 -33 23 -32 47 -56 53 -54 34 12
-20 143 -88 215 -44 48 -45 50 -23 56 21 7 20 8 -15 21 -21 8 -53 27 -70 42
-18 14 -24 24 -14 20 9 -3 17 -2 17 4 0 6 6 7 13 3 8 -5 8 -2 -2 9 -14 18 -2
24 14 8 7 -6 10 2 10 24 0 19 -4 31 -10 27 -5 -3 -7 -2 -3 3 4 4 3 14 -3 21
-7 9 -5 20 7 40 18 27 18 27 -6 20 -14 -3 -19 -3 -12 0 10 5 10 9 0 22 -10 14
-10 15 2 5 20 -18 29 -16 25 6 -2 11 2 22 9 24 6 3 12 -3 12 -13 0 -10 -3 -17
-7 -14 -4 2 -6 -4 -4 -13 1 -10 -4 -30 -11 -44 -13 -25 -10 -39 7 -39 5 0 6 7
3 15 -4 10 -1 14 7 12 8 -2 11 -2 7 0 -5 3 -8 12 -8 21 0 15 2 15 10 2 8 -13
10 -12 10 3 0 9 -5 17 -11 17 -5 0 -8 4 -4 9 3 6 15 8 27 6 11 -3 17 -1 14 3
-4 4 -12 7 -17 7 -5 0 -9 3 -9 8 0 42 0 42 10 27 6 -9 10 -10 10 -3 0 6 -4 14
-10 18 -5 3 -7 13 -4 23 5 14 4 14 -4 2 -6 -8 -8 -18 -6 -22 3 -4 1 -8 -4 -8
-6 0 -13 7 -16 16 -3 8 -2 12 3 9 5 -3 12 4 16 15 4 11 11 18 16 15 5 -3 6 1
3 10 -5 12 -9 13 -20 4 -10 -8 -14 -8 -14 0 0 6 4 11 10 11 5 0 8 13 6 29 -2
20 1 28 9 25 6 -3 12 -11 12 -19 0 -8 -5 -11 -11 -8 -6 3 -7 2 -3 -2 16 -18
33 -12 33 11 0 12 -3 21 -7 18 -5 -2 -13 4 -19 15 -7 14 -7 22 2 27 6 4 8 3 4
-4 -3 -6 -1 -14 5 -18 7 -4 9 -3 5 4 -3 6 -2 13 4 17 6 3 8 17 6 31 -3 15 1
27 11 33 11 6 12 10 4 15 -6 4 -11 2 -11 -4 0 -6 -4 -9 -9 -6 -5 3 -7 -11 -6
-32 2 -20 1 -31 -2 -24 -4 10 -8 10 -21 0 -16 -12 -16 -11 -1 7 19 25 18 51
-1 47 -12 -3 -12 -1 -3 9 10 10 9 15 -5 26 -15 13 -14 13 6 3 12 -6 20 -16 17
-23 -4 -7 0 -4 8 5 8 10 17 15 21 11 4 -4 4 0 0 10 -3 9 -10 17 -16 17 -5 0
-6 -5 -3 -11 4 -6 -2 -5 -13 2 -12 7 -18 18 -15 23 4 6 8 6 10 -1 3 -7 11 -9
20 -6 12 5 11 9 -8 19 -13 7 -18 13 -11 14 7 0 10 4 7 10 -3 5 3 15 15 22 24
15 26 25 5 25 -8 0 -12 -4 -9 -9 3 -4 -2 -5 -11 -1 -12 4 -13 8 -5 13 6 4 11
11 10 16 -1 5 4 10 12 12 9 2 8 0 -2 -7 -18 -13 -1 -15 18 -2 11 7 11 9 0 13
-19 8 -17 74 3 70 10 -3 9 2 -4 16 -9 10 -14 22 -10 27 5 4 3 5 -3 2 -6 -4
-10 -20 -9 -37 1 -16 -1 -27 -6 -24 -5 3 -7 9 -4 14 3 5 1 12 -5 15 -8 5 -7
11 1 21 9 11 8 18 -5 32 -9 10 -13 22 -9 25 3 4 1 7 -5 7 -7 0 -12 5 -12 11 0
8 4 8 14 -1 11 -8 20 -9 33 -1 17 10 17 10 0 11 -10 0 -25 7 -33 15 -9 8 -12
15 -7 15 5 0 15 -6 22 -12 10 -11 11 -9 5 7 -7 18 -6 19 12 5 17 -14 18 -14 6
2 -8 9 -11 21 -8 26 3 6 -1 15 -8 21 -9 8 -13 26 -11 47 2 19 0 34 -5 34 -4 0
-7 8 -7 18 0 34 -3 42 -17 42 -10 0 -12 7 -9 21 4 14 0 26 -11 34 -9 7 -19 26
-22 41 -3 21 -2 25 5 14 5 -8 8 -17 6 -20 -2 -3 4 -11 14 -17 14 -9 17 -7 19
11 1 15 -1 17 -7 7 -7 -10 -11 -8 -17 10 -4 13 -7 28 -6 32 1 5 -2 6 -8 2 -5
-3 -10 1 -10 10 0 10 5 14 13 9 9 -5 9 -4 0 6 -6 7 -9 19 -6 26 3 8 0 14 -7
14 -6 0 -8 4 -5 10 3 5 0 7 -9 4 -21 -8 -41 33 -25 52 9 11 9 14 0 14 -7 0
-10 4 -6 9 3 5 1 12 -4 16 -6 3 -8 -3 -6 -15 2 -11 -1 -20 -7 -20 -5 0 -8 6
-5 14 3 8 0 22 -8 32 -7 10 -10 25 -7 34 5 13 4 13 -14 0 -17 -13 -18 -13 -8
0 6 8 10 23 9 32 -2 10 2 21 7 25 7 4 8 1 3 -7 -5 -9 -4 -11 4 -6 15 10 4 27
-13 20 -7 -3 -13 2 -13 11 0 9 6 14 14 11 17 -7 17 7 -1 47 -15 34 -62 87
-110 124 -24 19 -27 25 -16 39 11 12 11 15 -1 12 -8 -2 -13 4 -13 14 1 11 -4
14 -14 11 -11 -5 -13 -3 -7 7 5 9 4 11 -4 6 -8 -6 -9 -12 -2 -20 6 -7 7 -17 3
-21 -4 -5 -1 -5 7 0 10 6 12 4 6 -5 -6 -9 -4 -11 5 -5 9 5 11 4 6 -3 -5 -9
-12 -8 -27 1 -10 6 -14 14 -8 16 6 2 3 11 -7 22 -13 15 -20 16 -31 8 -11 -9
-12 -8 -7 5 4 11 13 15 25 11 13 -4 19 -1 19 9 0 19 -17 30 -23 14 -2 -7 -8
-10 -12 -6 -4 4 -2 15 6 25 12 15 12 16 -1 8 -25 -16 -47 -15 -60 0 -7 9 -10
18 -6 22 3 3 6 1 6 -5 0 -6 8 -9 18 -6 14 5 15 4 2 -5 -19 -13 -1 -14 20 -1
13 9 13 10 0 10 -12 0 -12 2 -2 9 11 6 10 10 -4 15 -9 3 -19 4 -22 1 -3 -3 1
-5 8 -5 7 0 11 -2 8 -5 -3 -3 -13 -3 -22 1 -13 5 -14 9 -5 20 12 14 11 15 -28
18 -20 2 -43 39 -32 53 7 8 4 15 -9 22 -11 6 -22 8 -24 5 -7 -6 -68 63 -68 77
0 6 -4 7 -10 4 -5 -3 -10 -2 -10 2 0 5 -15 25 -34 45 -19 20 -32 39 -29 42 4
3 0 6 -7 6 -7 0 -23 11 -36 25 -22 24 -22 24 -4 72 24 65 34 133 25 188 -6 45
-24 53 -26 12 -1 -12 -5 7 -10 43 -8 66 -33 112 -63 118 -11 2 -16 -4 -16 -19
0 -21 -3 -20 -35 13 -19 19 -74 57 -121 84 -283 162 -366 224 -404 302 -33 65
-68 112 -85 112 -8 0 -20 -10 -26 -22z m991 -1124 c0 -2 -7 -4 -15 -4 -8 0
-15 4 -15 10 0 5 7 7 15 4 8 -4 15 -8 15 -10z m45 -74 c-3 -5 -12 -10 -18 -10
-7 0 -6 4 3 10 19 12 23 12 15 0z m-2941 -190 c-6 -6 -10 -3 -10 10 0 13 4 16
10 10 7 -7 7 -13 0 -20z m26 -35 c0 -2 -9 -3 -19 -2 -11 0 -18 5 -15 9 4 6 34
0 34 -7z m15 -43 c-3 -3 -11 0 -18 7 -9 10 -8 11 6 5 10 -3 15 -9 12 -12z m-5
-46 c0 -2 -8 -10 -17 -17 -16 -13 -17 -12 -4 4 13 16 21 21 21 13z m-40 -22
c0 -8 -19 -13 -24 -6 -3 5 1 9 9 9 8 0 15 -2 15 -3z m71 -47 c-6 -8 -8 -16 -5
-19 3 -3 1 -9 -4 -12 -6 -3 -9 0 -8 6 2 16 15 38 23 38 3 0 0 -6 -6 -13z m-70
-44 c13 -16 12 -17 -3 -4 -10 7 -18 15 -18 17 0 8 8 3 21 -13z m66 -20 c0 -9
-4 -10 -14 -2 -7 6 -13 12 -13 14 0 1 6 2 13 2 8 0 14 -6 14 -14z m20 -15 c-3
-8 -6 -5 -6 6 -1 11 2 17 5 13 3 -3 4 -12 1 -19z m-60 -6 c0 -10 -6 -19 -13
-19 -9 0 -9 5 -1 19 7 10 13 18 14 18 1 0 1 -8 0 -18z m3213 -47 c0 -2 -6 -8
-13 -14 -10 -8 -14 -7 -14 2 0 8 6 14 14 14 7 0 13 -1 13 -2z m-3180 -19 c0
-2 -8 -10 -17 -17 -16 -13 -17 -12 -4 4 13 16 21 21 21 13z m-72 -31 c-3 -3
-9 2 -12 12 -6 14 -5 15 5 6 7 -7 10 -15 7 -18z m95 -16 c-8 -8 -13 -7 -18 2
-5 8 -4 10 3 5 7 -4 12 -2 12 5 0 7 3 9 7 6 4 -4 2 -12 -4 -18z m-39 -5 c3 -8
2 -12 -4 -9 -6 3 -10 10 -10 16 0 14 7 11 14 -7z m3272 -47 c1 -10 -3 -14 -13
-10 -12 5 -12 7 -1 14 10 7 9 9 -4 9 -9 0 -18 -6 -21 -12 -3 -7 -4 -3 -4 8 1
17 5 20 21 15 11 -4 20 -15 22 -24z m-3272 11 c-3 -4 -11 -5 -19 -1 -21 7 -19
12 4 10 11 0 18 -5 15 -9z m2506 -65 l0 -78 -70 0 c-38 0 -70 2 -70 4 0 10 93
132 108 140 30 18 32 13 32 -66z m-2555 47 c-3 -5 -12 -10 -18 -10 -7 0 -6 4
3 10 19 12 23 12 15 0z m3235 0 c0 -5 -2 -10 -4 -10 -3 0 -8 5 -11 10 -3 6 -1
10 4 10 6 0 11 -4 11 -10z m-3188 -12 c-14 -14 -44 -20 -36 -7 3 5 9 7 14 4 5
-3 11 -1 15 5 3 5 9 10 13 10 3 0 1 -5 -6 -12z m25 -16 c0 -10 -6 -19 -13 -19
-9 0 -9 5 -1 19 7 10 13 18 14 18 1 0 1 -8 0 -18z m3197 2 c3 -8 2 -12 -4 -9
-6 3 -10 10 -10 16 0 14 7 11 14 -7z m46 -16 c0 -5 -8 -8 -17 -7 -10 0 -13 3
-6 5 7 3 9 13 6 22 -4 15 -3 15 6 2 6 -8 11 -18 11 -22z m-3281 -25 c2 -1 -5
-1 -16 0 -11 0 -20 7 -20 14 0 10 4 10 16 1 9 -7 18 -13 20 -15z m3219 2 c-3
-3 -9 2 -12 12 -6 14 -5 15 5 6 7 -7 10 -15 7 -18z m-3201 -30 c0 -8 -4 -15
-9 -15 -10 0 -11 14 -1 23 9 10 10 9 10 -8z m-26 -32 c13 -16 12 -17 -3 -4
-10 7 -18 15 -18 17 0 8 8 3 21 -13z m3306 -6 c-5 -16 -34 -17 -34 -1 0 11 3
11 16 1 12 -10 14 -9 8 6 -4 11 -3 16 4 12 5 -4 8 -12 6 -18z m-52 -7 c-3 -5
-12 -10 -18 -10 -7 0 -6 4 3 10 19 12 23 12 15 0z m70 -10 c-7 -12 8 -42 21
-41 5 1 9 -7 9 -16 0 -10 3 -23 7 -28 4 -6 3 -17 -3 -25 -13 -21 -11 -32 4
-24 6 4 9 3 4 -1 -4 -5 0 -17 10 -27 10 -12 12 -18 4 -18 -7 0 -9 -5 -5 -12 4
-7 4 -10 -1 -6 -4 4 -17 3 -29 -3 -17 -8 -16 -6 4 10 23 18 23 21 9 38 -10 11
-15 33 -14 56 1 25 -3 42 -14 50 -15 11 -18 23 -13 50 1 4 5 7 8 7 3 0 2 -4
-1 -10z m-3314 -13 c-6 -8 -7 -18 -3 -22 4 -5 1 -5 -6 -1 -10 6 -10 11 -1 22
6 8 14 14 16 14 3 0 0 -6 -6 -13z m34 4 c-3 -5 -1 -12 5 -16 5 -3 10 -1 10 6
0 7 3 10 6 6 3 -3 3 -11 -1 -17 -5 -8 -11 -8 -21 1 -12 10 -11 29 2 29 3 0 3
-4 -1 -9z m2105 -15 c0 -14 -36 -32 -52 -28 -5 1 -8 -3 -8 -9 0 -5 -4 -7 -10
-4 -5 3 -10 2 -10 -2 0 -5 -10 -14 -22 -22 -20 -13 -22 -12 -11 1 7 8 9 18 5
22 -4 4 -2 7 3 5 15 -3 95 33 95 43 0 4 2 8 5 8 3 0 5 -6 5 -14z m-2180 -21
c14 -19 14 -19 -2 -6 -10 7 -18 18 -18 24 0 6 1 8 3 6 1 -2 9 -13 17 -24z
m3297 10 c0 -8 -4 -12 -9 -9 -4 3 -8 9 -8 15 0 5 4 9 8 9 5 0 9 -7 9 -15z
m-3240 -28 c0 -7 -9 -14 -20 -14 -19 -2 -19 -2 -1 12 11 8 19 15 20 15 0 0 1
-6 1 -13z m1809 -9 c12 -14 13 -18 3 -10 -9 6 -18 10 -21 7 -2 -3 -5 2 -5 10
0 19 0 19 23 -7z m1412 -3 c-3 -3 -9 2 -12 12 -6 14 -5 15 5 6 7 -7 10 -15 7
-18z m79 -5 c2 -11 -1 -20 -5 -20 -4 0 -8 11 -8 25 0 28 8 24 13 -5z m-1297
10 c0 -5 -5 -10 -11 -10 -5 0 -7 5 -4 10 3 6 8 10 11 10 2 0 4 -4 4 -10z
m1255 -10 c10 -11 16 -20 13 -20 -3 0 -13 9 -23 20 -10 11 -16 20 -13 20 3 0
13 -9 23 -20z m-3238 -22 c2 -17 0 -19 -7 -8 -5 8 -6 18 -4 22 8 12 10 10 11
-14z m3228 -8 c3 -6 -1 -7 -9 -4 -18 7 -21 14 -7 14 6 0 13 -4 16 -10z m-3267
-51 c9 -12 9 -16 -1 -16 -7 0 -14 9 -14 20 -1 11 -1 18 0 16 2 -2 8 -11 15
-20z m3296 9 c-3 -4 -11 -5 -19 -1 -21 7 -19 12 4 10 11 0 18 -5 15 -9z
m-3295 -82 c-3 -3 -11 5 -18 17 -13 21 -12 21 5 5 10 -10 16 -20 13 -22z m78
22 c12 -20 12 -39 0 -31 -7 4 -8 0 -3 -13 4 -10 9 -27 11 -37 3 -14 1 -15 -16
-7 -23 13 -25 22 -3 13 14 -5 15 -3 4 16 -8 17 -8 26 0 36 8 10 7 16 -7 24
-10 6 -13 11 -6 11 6 0 15 -6 20 -12z m-112 -18 c3 -6 -1 -7 -9 -4 -18 7 -21
14 -7 14 6 0 13 -4 16 -10z m95 4 c0 -8 -19 -13 -24 -6 -3 5 1 9 9 9 8 0 15
-2 15 -3z m3237 -11 c0 -10 -4 -10 -16 -1 -9 7 -18 13 -20 15 -2 1 5 1 16 0
11 0 20 -7 20 -14z m-3327 -28 c-7 -8 -17 -15 -23 -15 -6 0 -2 7 9 15 25 19
30 19 14 0z m66 -23 c-3 -3 -1 -10 4 -17 7 -8 6 -12 -3 -12 -7 0 -13 11 -13
23 0 12 4 20 9 17 4 -3 6 -8 3 -11z m3222 -7 c-3 -3 -9 2 -12 12 -6 14 -5 15
5 6 7 -7 10 -15 7 -18z m-3254 7 c2 -4 -4 -8 -14 -8 -10 0 -16 4 -14 8 3 4 9
8 14 8 5 0 11 -4 14 -8z m3356 -22 c0 -5 -2 -10 -4 -10 -3 0 -8 5 -11 10 -3 6
-1 10 4 10 6 0 11 -4 11 -10z m-3330 -34 c0 -2 -8 -10 -17 -17 -16 -13 -17
-12 -4 4 13 16 21 21 21 13z m3328 -21 c-3 -3 -9 2 -12 12 -6 14 -5 15 5 6 7
-7 10 -15 7 -18z m-78 11 c0 -2 -8 -10 -17 -17 -16 -13 -17 -12 -4 4 13 16 21
21 21 13z m-3238 -40 c-4 -6 -7 -14 -7 -18 0 -19 -11 -14 -11 6 0 12 6 23 13
23 6 0 9 -5 5 -11z m3308 9 c0 -2 -6 -8 -13 -14 -10 -8 -14 -7 -14 2 0 8 6 14
14 14 7 0 13 -1 13 -2z m33 -9 c6 -16 -1 -26 -17 -26 -6 0 -4 5 4 10 10 6 11
10 3 10 -7 0 -13 5 -13 10 0 15 17 12 23 -4z m-872 -13 c6 -6 8 -109 7 -259
l-3 -249 -41 65 c-48 78 -61 108 -74 179 -10 56 -14 190 -6 226 2 11 5 28 5
39 1 16 7 18 52 14 27 -3 54 -9 60 -15z m-2511 -8 c-10 -12 -10 -18 1 -32 12
-17 12 -17 -6 -1 -15 14 -16 20 -5 32 7 9 15 16 17 16 3 0 0 -7 -7 -15z m-35
-15 c3 -6 -1 -7 -9 -4 -18 7 -21 14 -7 14 6 0 13 -4 16 -10z m3391 -9 c1 -6 0
-7 -3 -1 -2 5 -9 8 -13 5 -5 -3 -11 -1 -14 4 -4 5 2 8 11 7 9 -2 18 -8 19 -15z
m-17 -24 c8 -10 7 -14 -2 -14 -8 0 -14 6 -14 14 0 7 1 13 2 13 2 0 8 -6 14
-13z m-3295 -5 c3 -5 -1 -9 -9 -9 -8 0 -12 4 -9 9 3 4 7 8 9 8 2 0 6 -4 9 -8z
m-44 -6 c0 -2 -8 -10 -17 -17 -16 -13 -17 -12 -4 4 13 16 21 21 21 13z m3360
-26 c-13 -24 -14 -24 -31 -2 -13 15 -12 16 2 4 14 -10 18 -10 23 3 3 8 8 15
11 15 3 0 1 -9 -5 -20z m-3407 -5 c-3 -9 -8 -14 -10 -11 -3 3 -2 9 2 15 9 16
15 13 8 -4z m3340 0 c-3 -9 -8 -14 -10 -11 -3 3 -2 9 2 15 9 16 15 13 8 -4z
m28 -22 c13 -16 12 -17 -3 -4 -17 13 -22 21 -14 21 2 0 10 -8 17 -17z m-64
-18 c0 -8 -4 -15 -9 -15 -10 0 -11 14 -1 23 9 10 10 9 10 -8z m-3260 -13 c0
-10 -6 -19 -13 -19 -9 0 -9 5 -1 19 7 10 13 18 14 18 1 0 1 -8 0 -18z m1563 3
c0 -2 -9 -3 -19 -2 -11 0 -18 5 -15 9 4 6 34 0 34 -7z m1761 -18 c-6 -8 -8
-17 -4 -20 3 -4 1 -7 -5 -7 -15 0 -15 13 0 28 16 16 23 15 9 -1z m-65 -57 c0
-12 -4 -16 -9 -11 -5 5 -6 14 -3 20 10 15 12 14 12 -9z m84 16 c0 -2 -8 -10
-17 -17 -16 -13 -17 -12 -4 4 13 16 21 21 21 13z m-3369 -23 c12 -16 12 -17
-2 -6 -9 7 -20 9 -24 5 -5 -4 -5 -1 -1 6 9 16 11 15 27 -5z m1426 -7 c0 -15
-21 -16 -34 -1 -4 4 -3 5 4 1 6 -3 14 -2 18 4 8 14 12 13 12 -4z m1963 5 c0
-5 -7 -12 -16 -15 -14 -5 -15 -4 -4 9 14 17 20 19 20 6z m-1920 -26 c11 -14 7
-19 -12 -16 -5 0 -8 -3 -8 -9 0 -5 -5 -10 -12 -10 -6 0 -4 8 6 19 13 15 14 20
4 24 -7 3 -8 6 -2 6 6 1 17 -6 24 -14z m-68 -9 c7 4 8 2 4 -5 -9 -13 -26 -5
-25 12 0 9 2 8 6 -1 2 -6 10 -9 15 -6z m1948 -10 c0 -2 -7 -7 -16 -10 -8 -3
-12 -2 -9 4 6 10 25 14 25 6z m22 -32 c-9 -16 -10 -14 -9 8 1 15 6 23 11 18 4
-4 4 -16 -2 -26z m-3362 22 c0 -2 -6 -9 -14 -15 -11 -9 -16 -9 -22 0 -4 7 -3
9 4 5 6 -3 13 -2 17 4 6 10 15 14 15 6z m3299 -23 c2 -1 -5 -1 -16 0 -11 0
-20 7 -20 14 0 10 4 10 16 1 9 -7 18 -13 20 -15z m-23 -39 c1 -9 0 -13 -4 -10
-3 4 -7 14 -8 22 -1 9 0 13 4 10 3 -4 7 -14 8 -22z m-3259 -27 c1 -11 1 -18 0
-16 -2 2 -8 11 -15 20 -9 12 -9 16 1 16 7 0 14 -9 14 -20z m3337 14 c-9 -9
-34 -9 -34 -1 0 5 9 8 20 7 10 -1 17 -3 14 -6z m-94 -25 c-7 -7 -13 -7 -20 0
-6 6 -3 10 10 10 13 0 16 -4 10 -10z m26 -14 c-17 -16 -18 -16 -5 5 7 12 15
20 18 17 3 -2 -3 -12 -13 -22z m69 -2 c3 -5 1 -10 -4 -10 -6 0 -11 5 -11 10 0
6 2 10 4 10 3 0 8 -4 11 -10z m-3359 -20 c0 -12 -4 -16 -9 -11 -5 5 -6 14 -3
20 10 15 12 14 12 -9z m104 6 c-14 -14 -13 -29 2 -20 7 4 8 3 4 -5 -4 -6 -11
-9 -16 -6 -14 8 -8 42 7 42 10 0 10 -4 3 -11z m3198 -36 c-7 -10 -14 -17 -17
-15 -4 4 18 35 25 35 2 0 -1 -9 -8 -20z m-3281 -18 c0 -10 -6 -19 -13 -19 -9
0 -9 5 -1 19 7 10 13 18 14 18 1 0 1 -8 0 -18z m3323 11 c-8 -3 -22 -11 -30
-17 -13 -10 -13 -9 -1 7 7 9 21 17 30 16 13 0 14 -1 1 -6z m-80 -21 c0 -5 -7
-9 -15 -9 -8 0 -12 4 -9 9 3 4 9 8 15 8 5 0 9 -4 9 -8z m-30 -36 c0 -2 -8 -10
-17 -17 -16 -13 -17 -12 -4 4 13 16 21 21 21 13z m69 -33 c2 -1 -5 -1 -16 0
-11 0 -20 7 -20 14 0 10 4 10 16 1 9 -7 18 -13 20 -15z m-3308 0 c13 -16 12
-17 -3 -4 -10 7 -18 15 -18 17 0 8 8 3 21 -13z m2187 -23 c-7 -10 -14 -17 -17
-15 -4 4 18 35 25 35 2 0 -1 -9 -8 -20z m40 -15 c-3 -3 -9 2 -12 12 -6 14 -5
15 5 6 7 -7 10 -15 7 -18z m1057 16 c3 -5 2 -12 -3 -15 -5 -3 -9 1 -9 9 0 17
3 19 12 6z m-3172 -8 c-7 -2 -13 -9 -13 -14 0 -6 5 -7 12 -3 7 5 8 3 3 -5 -5
-9 -11 -9 -17 -3 -12 12 -2 32 15 31 9 0 9 -2 0 -6z m2610 -14 c-13 -12 -84
-28 -98 -23 -7 3 -16 11 -19 19 -3 10 10 13 60 12 35 0 61 -4 57 -8z m-3129
-7 c2 -4 -4 -8 -14 -8 -10 0 -16 4 -14 8 3 4 9 8 14 8 5 0 11 -4 14 -8z m36
-2 c0 -5 -5 -10 -11 -10 -5 0 -7 5 -4 10 3 6 8 10 11 10 2 0 4 -4 4 -10z m37
-5 c0 -8 -4 -12 -9 -9 -4 3 -8 9 -8 15 0 5 4 9 8 9 5 0 9 -7 9 -15z m47 7 c3
-5 -1 -9 -9 -9 -8 0 -15 4 -15 9 0 4 4 8 9 8 6 0 12 -4 15 -8z m152 -26 c0
-19 -3 -33 -7 -31 -7 5 -4 65 4 65 1 0 3 -15 3 -34z m84 28 c0 -8 -19 -13 -24
-6 -3 5 1 9 9 9 8 0 15 -2 15 -3z m-146 -34 c-6 -6 -10 -3 -10 10 0 13 4 16
10 10 7 -7 7 -13 0 -20z m206 26 c0 -2 -8 -10 -17 -17 -16 -13 -17 -12 -4 4
13 16 21 21 21 13z m-463 -21 c0 -8 -5 -11 -10 -8 -7 4 -8 -1 -3 -13 5 -14 4
-16 -4 -8 -6 6 -8 18 -4 27 8 21 21 22 21 2z m494 -2 c13 -16 12 -17 -3 -4
-10 7 -18 15 -18 17 0 8 8 3 21 -13z m3305 -5 c3 -4 -1 -5 -10 -4 -8 1 -18 5
-22 8 -3 4 1 5 10 4 8 -1 18 -5 22 -8z m-3638 -18 c-7 -10 -14 -17 -17 -15 -4
4 18 35 25 35 2 0 -1 -9 -8 -20z m277 2 c-3 -3 -11 0 -18 7 -9 10 -8 11 6 5
10 -3 15 -9 12 -12z m-308 -24 c-3 -8 -6 -5 -6 6 -1 11 2 17 5 13 3 -3 4 -12
1 -19z m379 10 c3 -4 -1 -5 -10 -4 -8 1 -18 5 -22 8 -3 4 1 5 10 4 8 -1 18 -5
22 -8z m60 -13 c0 -14 -6 -25 -12 -25 -6 0 -10 10 -9 23 3 27 3 27 14 27 5 0
8 -11 7 -25z m2125 2 c-10 -9 -11 -8 -5 6 3 10 9 15 12 12 3 -3 0 -11 -7 -18z
m-2261 -14 c0 5 5 5 11 1 8 -4 8 -9 -1 -18 -8 -8 -13 -7 -20 4 -5 8 -10 20
-10 25 0 6 5 3 10 -5 5 -8 10 -11 10 -7z m2250 -18 c-5 -7 -9 -14 -7 -16 1 -2
0 -3 -2 -1 -11 7 -7 29 5 29 9 0 11 -4 4 -12z m-28 -30 c2 3 5 -2 5 -10 0 -10
-4 -12 -12 -5 -7 5 -16 6 -21 2 -5 -4 -6 -3 -2 2 4 5 2 16 -4 25 -10 12 -7 12
8 -2 11 -9 23 -15 26 -12z m-12 -129 c-7 -7 -13 -7 -20 0 -6 6 -3 10 10 10 13
0 16 -4 10 -10z m-16 -34 c3 -5 -1 -9 -9 -9 -8 0 -15 4 -15 9 0 4 4 8 9 8 6 0
12 -4 15 -8z m836 -237 c7 -9 8 -15 2 -15 -5 0 -12 7 -16 15 -3 8 -4 15 -2 15
2 0 9 -7 16 -15z m-60 -23 c0 -5 -7 -9 -15 -9 -8 0 -12 4 -9 9 3 4 9 8 15 8 5
0 9 -4 9 -8z m74 -31 c-2 -3 -12 3 -22 13 -16 17 -16 18 5 5 12 -7 20 -15 17
-18z m-41 1 c15 -16 15 -19 2 -19 -8 0 -13 3 -10 5 3 3 0 11 -6 19 -17 20 -5
16 14 -5z m81 -27 c-15 -23 -36 -27 -51 -10 -4 4 -2 5 5 1 7 -4 12 -2 12 6 0
9 3 9 10 -2 8 -13 10 -12 10 3 0 9 5 17 11 17 5 0 7 5 3 12 -4 7 -3 8 4 4 9
-5 8 -14 -4 -31z m-197 -12 c0 -8 -4 -10 -12 -3 -7 5 -16 6 -20 2 -5 -4 -5 -2
-2 4 9 15 34 13 34 -3z m68 8 c-9 -8 -36 -10 -30 -2 2 4 11 8 20 8 8 0 13 -3
10 -6z m-73 -36 c3 3 11 -3 19 -12 12 -16 12 -17 -2 -6 -9 7 -18 11 -21 8 -3
-3 -11 3 -19 12 -12 16 -12 17 2 6 9 -7 18 -11 21 -8z m-52 -5 c0 -5 -5 -10
-11 -10 -5 0 -7 5 -4 10 3 6 8 10 11 10 2 0 4 -4 4 -10z m173 -15 c-3 -9 -8
-14 -10 -11 -3 3 -2 9 2 15 9 16 15 13 8 -4z m-217 -25 c0 -12 -4 -16 -9 -11
-5 5 -6 14 -3 20 10 15 12 14 12 -9z m130 -18 c-17 -16 -18 -16 -5 5 7 12 15
20 18 17 3 -2 -3 -12 -13 -22z m-68 -11 c-7 -9 -13 -18 -15 -20 -1 -2 -1 5 0
16 0 11 7 20 14 20 10 0 10 -4 1 -16z m96 -6 c-4 -8 -11 -15 -16 -15 -6 0 -5
6 2 15 7 8 14 15 16 15 2 0 1 -7 -2 -15z m-174 -6 c0 -4 -9 -7 -19 -6 -11 0
-18 4 -16 7 6 9 35 8 35 -1z m159 -48 c-2 -6 -10 2 -17 17 -11 25 -11 25 4 10
9 -9 15 -21 13 -27z m45 30 c7 -10 -18 -34 -27 -25 -7 8 3 34 13 34 5 0 11 -4
14 -9z m-250 -47 c3 -8 2 -12 -4 -9 -6 3 -10 10 -10 16 0 14 7 11 14 -7z m86
-13 c0 -5 -8 -15 -17 -22 -16 -12 -17 -12 -6 2 7 9 10 19 6 22 -3 4 -1 7 5 7
7 0 12 -4 12 -9z m126 2 c-10 -11 -36 -12 -36 -2 0 5 10 9 22 9 12 0 18 -3 14
-7z m-309 -48 c0 -8 -4 -12 -9 -9 -4 3 -8 9 -8 15 0 5 4 9 8 9 5 0 9 -7 9 -15z
m62 -39 c-3 -3 -11 5 -18 17 -13 21 -12 21 5 5 10 -10 16 -20 13 -22z m74 9
c-7 -21 -12 -19 -10 4 0 11 5 18 9 15 4 -3 5 -11 1 -19z m-40 -20 c-3 -9 -8
-14 -10 -11 -3 3 -2 9 2 15 9 16 15 13 8 -4z m-108 -5 c-3 -5 -12 -10 -18 -10
-7 0 -6 4 3 10 19 12 23 12 15 0z m168 -25 c4 3 5 2 2 -2 -12 -15 -31 -10 -31
9 0 17 2 17 12 4 6 -9 14 -14 17 -11z m-156 -28 c0 -8 -6 -14 -14 -14 -9 0
-10 4 -2 14 6 7 12 13 14 13 1 0 2 -6 2 -13z m63 -23 c0 -8 -19 -13 -24 -6 -3
5 1 9 9 9 8 0 15 -2 15 -3z m25 -23 c3 -5 1 -12 -5 -16 -5 -3 -10 -2 -10 4 0
6 -8 8 -17 5 -15 -5 -16 -4 -3 5 19 13 27 14 35 2z m-415 -95 c0 -2 -8 -10
-17 -17 -16 -13 -17 -12 -4 4 13 16 21 21 21 13z m-56 -44 c3 -5 -1 -9 -9 -9
-8 0 -12 4 -9 9 3 4 7 8 9 8 2 0 6 -4 9 -8z m45 -26 c-3 -3 -11 5 -18 17 -13
21 -12 21 5 5 10 -10 16 -20 13 -22z m-19 -20 c0 -2 -8 -10 -17 -17 -16 -13
-17 -12 -4 4 13 16 21 21 21 13z m-89 -23 c13 -17 13 -17 -6 -3 -11 8 -22 16
-24 17 -2 2 0 3 6 3 6 0 17 -8 24 -17z m-1611 -39 c0 -3 -7 -1 -15 6 -8 7 -15
17 -15 22 0 5 7 3 15 -6 8 -8 15 -18 15 -22z m1471 19 c13 -16 12 -17 -3 -4
-10 7 -18 15 -18 17 0 8 8 3 21 -13z m90 4 c-6 -8 -7 -18 -3 -22 4 -5 1 -5 -6
-1 -10 6 -10 11 -1 22 6 8 14 14 16 14 3 0 0 -6 -6 -13z m132 -10 c4 3 7 4 7
0 0 -17 -20 -14 -36 6 -19 22 -19 22 2 4 11 -9 24 -14 27 -10z m-1656 7 c-3
-3 -12 -4 -19 -1 -8 3 -5 6 6 6 11 1 17 -2 13 -5z m1599 -30 c-1 -13 -5 -26
-8 -29 -4 -4 -5 1 -4 12 2 10 0 23 -5 29 -5 6 -4 11 5 11 7 0 12 -10 12 -23z
m-1543 9 c3 -5 -6 -9 -20 -10 -19 -1 -22 1 -12 8 17 11 26 11 32 2z m17 -28
c-15 -18 1 -20 18 -3 7 7 12 9 12 5 0 -4 0 -10 0 -14 0 -15 -59 -10 -65 5 -3
10 0 12 10 9 8 -4 17 -2 20 3 4 6 9 10 12 10 3 0 0 -7 -7 -15z m1263 0 c-3 -9
-8 -14 -10 -11 -3 3 -2 9 2 15 9 16 15 13 8 -4z m72 -5 c3 -6 -1 -7 -9 -4 -18
7 -21 14 -7 14 6 0 13 -4 16 -10z m66 -7 c13 -16 12 -17 -3 -4 -10 7 -18 15
-18 17 0 8 8 3 21 -13z m9 -34 c0 -5 -4 -7 -10 -4 -5 3 -10 1 -10 -6 0 -7 -3
-10 -6 -6 -8 7 4 27 17 27 5 0 9 -5 9 -11z m-32 -41 c-2 -6 -10 -13 -16 -14
-7 -1 -8 0 -2 3 5 2 8 9 4 14 -3 5 0 9 6 9 7 0 10 -5 8 -12z m-308 -18 c0 -5
-5 -10 -11 -10 -5 0 -7 5 -4 10 3 6 8 10 11 10 2 0 4 -4 4 -10z m27 -32 c-3
-8 -6 -5 -6 6 -1 11 2 17 5 13 3 -3 4 -12 1 -19z m56 8 c8 5 8 2 0 -6 -12 -13
-43 -23 -43 -14 0 11 25 31 28 23 2 -5 9 -6 15 -3z"/>
<path d="M3934 3752 c3 -5 0 -13 -6 -15 -9 -4 -10 -6 -1 -6 17 -1 25 16 12 25
-7 4 -9 3 -5 -4z"/>
<path d="M3967 3693 c-9 -8 22 -43 39 -43 18 0 27 17 13 26 -8 4 -9 3 -5 -4
10 -17 -19 -15 -33 1 -6 8 -8 17 -4 20 3 4 4 7 1 7 -2 0 -8 -3 -11 -7z"/>
<path d="M4051 3583 c7 -10 15 -20 16 -22 2 -2 3 3 3 11 0 9 -7 19 -16 22 -15
6 -15 4 -3 -11z"/>
<path d="M4250 3361 c0 -6 4 -13 10 -16 6 -3 7 1 4 9 -7 18 -14 21 -14 7z"/>
<path d="M1270 3159 c0 -5 -4 -8 -8 -5 -5 3 -8 -4 -7 -16 2 -23 32 -35 32 -12
0 7 -4 11 -9 8 -12 -8 -10 10 4 24 9 9 9 12 0 12 -7 0 -12 -5 -12 -11z"/>
<path d="M4380 3095 c13 -16 30 -11 30 8 0 7 -4 6 -10 -3 -6 -10 -10 -11 -10
-2 0 6 -5 12 -11 12 -8 0 -8 -5 1 -15z"/>
<path d="M1260 3085 c-7 -9 -8 -15 -2 -15 5 0 12 7 16 15 3 8 4 15 2 15 -2 0
-9 -7 -16 -15z"/>
<path d="M4415 3070 c6 -10 3 -12 -13 -8 -12 4 -20 2 -16 -3 7 -12 31 -12 39
0 3 5 0 13 -6 17 -8 5 -9 3 -4 -6z"/>
<path d="M4426 2982 c-2 -4 -1 -14 3 -21 6 -9 11 -10 15 -2 4 6 1 11 -6 11 -9
0 -9 3 2 10 9 6 10 10 3 10 -6 0 -14 -4 -17 -8z"/>
<path d="M1270 2891 c0 -6 4 -13 10 -16 6 -3 7 1 4 9 -7 18 -14 21 -14 7z"/>
<path d="M1252 2875 c4 -4 3 -14 -3 -21 -8 -9 -5 -15 10 -23 13 -8 22 -8 26
-1 4 6 1 9 -7 8 -7 -2 -12 4 -10 14 1 9 -3 20 -10 24 -7 4 -10 4 -6 -1z"/>
<path d="M1250 2795 c9 -11 10 -19 1 -28 -14 -18 -5 -26 22 -19 19 5 19 6 2
12 -17 6 -17 7 3 26 l20 19 -30 2 c-25 2 -28 0 -18 -12z"/>
<path d="M1265 2729 c-4 -6 -5 -12 -2 -15 2 -3 7 2 10 11 7 17 1 20 -8 4z"/>
<path d="M4557 2477 c4 -7 0 -8 -13 -3 -15 6 -16 5 -7 -5 9 -9 16 -9 26 -1 8
7 16 11 18 9 2 -1 3 0 1 2 -1 3 -9 6 -17 7 -9 1 -12 -2 -8 -9z"/>
<path d="M1253 2396 c0 -8 8 -11 20 -8 14 4 16 7 5 13 -19 12 -25 11 -25 -5z"/>
<path d="M1260 2366 c0 -2 7 -7 16 -10 8 -3 12 -2 9 4 -6 10 -25 14 -25 6z"/>
<path d="M2855 2310 c-10 -11 -13 -20 -7 -20 7 0 12 5 12 10 0 6 5 9 11 8 6
-2 14 3 16 10 7 19 -12 14 -32 -8z"/>
<path d="M4570 2252 c-20 -9 -23 -29 -4 -29 8 0 12 3 9 5 -3 3 0 11 6 19 13
14 11 15 -11 5z"/>
<path d="M1777 2210 c7 -8 20 -15 29 -16 9 -1 13 1 9 4 -4 4 -10 7 -13 7 -4 0
-14 4 -22 9 -12 7 -13 6 -3 -4z"/>
<path d="M1840 2160 c-12 -7 -10 -9 7 -7 12 0 19 5 17 9 -6 10 -6 10 -24 -2z"/>
<path d="M1890 2096 c0 -2 8 -10 18 -17 15 -13 16 -12 3 4 -13 16 -21 21 -21
13z"/>
<path d="M1255 2051 c12 -12 12 -16 -3 -28 -15 -13 -14 -13 6 -3 12 6 20 16
16 22 -4 5 -1 14 6 18 8 5 3 8 -13 7 -23 -2 -24 -4 -12 -16z"/>
<path d="M2490 2060 c0 -5 5 -10 11 -10 5 0 7 5 4 10 -3 6 -8 10 -11 10 -2 0
-4 -4 -4 -10z"/>
<path d="M2555 2020 c3 -5 8 -10 11 -10 2 0 4 5 4 10 0 6 -5 10 -11 10 -5 0
-7 -4 -4 -10z"/>
<path d="M2097 1890 c7 -8 20 -15 29 -16 9 -1 13 1 9 4 -4 4 -10 7 -13 7 -4 0
-14 4 -22 9 -12 7 -13 6 -3 -4z"/>
<path d="M2160 1840 c-12 -7 -10 -9 7 -7 12 0 19 5 17 9 -6 10 -6 10 -24 -2z"/>
<path d="M2210 1777 c0 -2 6 -10 14 -16 11 -9 16 -9 22 1 4 7 4 10 -1 6 -4 -4
-14 -3 -22 3 -7 6 -13 9 -13 6z"/>
<path d="M636 1658 c3 -5 10 -6 15 -3 13 9 11 12 -6 12 -8 0 -12 -4 -9 -9z"/>
<path d="M2354 1645 c1 -8 8 -21 16 -28 12 -10 12 -9 2 4 -6 9 -9 18 -6 21 3
3 1 9 -4 12 -6 3 -9 -1 -8 -9z"/>
<path d="M790 1644 c0 -5 9 -15 21 -22 12 -8 18 -9 15 -4 -3 6 -3 12 1 15 5 2
3 3 -3 1 -6 -1 -17 3 -23 9 -6 6 -11 7 -11 1z"/>
<path d="M967 1636 c-9 -7 -17 -17 -17 -21 0 -4 6 -2 14 4 7 6 20 9 28 6 8 -3
21 2 29 12 13 17 13 17 -4 4 -13 -10 -21 -11 -25 -4 -5 8 -12 8 -25 -1z"/>
<path d="M1158 1638 c-5 -13 -1 -15 20 -13 15 2 33 -2 41 -9 12 -9 12 -8 1 10
-7 11 -19 21 -26 21 -7 0 -11 -4 -8 -9 3 -4 1 -8 -5 -8 -5 0 -11 5 -13 12 -3
8 -7 6 -10 -4z"/>
<path d="M4150 1240 c0 -6 7 -10 15 -10 8 0 15 2 15 4 0 2 -7 6 -15 10 -8 3
-15 1 -15 -4z"/>
<path d="M4096 1232 c-2 -4 0 -14 6 -22 8 -12 9 -12 5 2 -3 9 -1 19 6 22 9 3
9 5 0 5 -6 1 -14 -3 -17 -7z"/>
<path d="M4039 1214 c-16 -20 7 -25 25 -5 14 15 14 18 1 18 -8 0 -20 -6 -26
-13z"/>
<path d="M4155 1070 c-3 -5 -1 -10 4 -10 6 0 11 5 11 10 0 6 -2 10 -4 10 -3 0
-8 -4 -11 -10z"/>
<path d="M3946 834 c-3 -7 2 -15 10 -18 10 -4 12 -2 8 6 -5 7 -2 9 9 5 10 -4
14 -2 11 7 -6 16 -32 16 -38 0z"/>
<path d="M3940 780 c-9 -6 -10 -10 -3 -10 6 0 15 5 18 10 8 12 4 12 -15 0z"/>
<path d="M1376 647 c3 -10 9 -15 12 -12 3 3 0 11 -7 18 -10 9 -11 8 -5 -6z"/>
<path d="M3737 653 c-13 -12 -7 -22 12 -20 15 1 17 4 9 14 -12 15 -13 15 -21
6z"/>
<path d="M3709 635 c-1 -3 -3 -9 -4 -15 -1 -5 -3 -13 -4 -17 -1 -5 -5 -2 -10
5 -7 11 -9 11 -14 -1 -6 -17 9 -17 38 1 11 6 14 12 7 12 -7 0 -10 5 -7 10 3 6
4 10 1 10 -3 0 -7 -2 -7 -5z"/>
<path d="M1426 603 c-6 -14 -5 -15 5 -6 7 7 10 15 7 18 -3 3 -9 -2 -12 -12z"/>
<path d="M1453 595 c0 -8 4 -15 9 -15 4 0 8 4 8 9 0 6 -4 12 -8 15 -5 3 -9 -1
-9 -9z"/>
<path d="M3316 404 c-9 -8 -16 -12 -16 -8 0 3 -7 1 -15 -6 -8 -7 -15 -9 -15
-4 0 5 -5 1 -11 -9 -6 -10 -8 -21 -5 -24 3 -4 6 -1 6 5 0 7 5 12 11 12 5 0 7
-5 3 -12 -4 -7 -3 -8 5 -4 6 4 9 11 6 16 -3 5 -1 11 5 15 5 3 10 1 10 -6 0 -7
9 -2 20 11 29 33 25 44 -4 14z"/>
<path d="M3230 340 c0 -5 5 -10 11 -10 5 0 7 5 4 10 -3 6 -8 10 -11 10 -2 0
-4 -4 -4 -10z"/>
<path d="M3083 327 c-10 -16 6 -20 24 -6 15 12 16 12 10 -3 -3 -10 -3 -19 1
-22 4 -2 9 6 10 19 1 18 -3 23 -19 22 -11 -1 -23 -5 -26 -10z"/>
<path d="M3179 328 c-5 -18 -6 -38 -1 -34 7 8 12 36 6 36 -2 0 -4 -1 -5 -2z"/>
<path d="M2845 280 c-17 -8 -17 -9 7 -7 15 1 24 5 22 9 -3 4 -6 8 -7 7 -1 0
-11 -4 -22 -9z"/>
<path d="M3107 279 c7 -7 15 -10 18 -7 3 3 -2 9 -12 12 -14 6 -15 5 -6 -5z"/>
<path d="M3350 280 c0 -5 5 -10 11 -10 5 0 7 5 4 10 -3 6 -8 10 -11 10 -2 0
-4 -4 -4 -10z"/>
<path d="M2918 263 c7 -3 16 -2 19 1 4 3 -2 6 -13 5 -11 0 -14 -3 -6 -6z"/>
<path d="M2970 259 c0 -5 5 -7 10 -4 6 3 10 8 10 11 0 2 -4 4 -10 4 -5 0 -10
-5 -10 -11z"/>
<path d="M3050 260 c0 -5 5 -10 11 -10 5 0 7 5 4 10 -3 6 -8 10 -11 10 -2 0
-4 -4 -4 -10z"/>
<path d="M2822 244 c-7 -8 -8 -14 -3 -14 10 0 25 19 20 25 -2 1 -10 -3 -17
-11z"/>
<path d="M3140 246 c0 -2 8 -10 18 -17 15 -13 16 -12 3 4 -13 16 -21 21 -21
13z"/>
<path d="M2735 220 c-2 -3 5 -6 15 -7 11 -1 22 2 24 5 3 4 -4 8 -15 8 -11 0
-22 -3 -24 -6z"/>
<path d="M2896 218 c3 -5 10 -6 15 -3 13 9 11 12 -6 12 -8 0 -12 -4 -9 -9z"/>
<path d="M2975 200 c3 -5 8 -10 11 -10 2 0 4 5 4 10 0 6 -5 10 -11 10 -5 0 -7
-4 -4 -10z"/>
<path d="M3060 200 c-9 -6 -10 -10 -3 -10 6 0 15 5 18 10 8 12 4 12 -15 0z"/>
<path d="M3295 200 c-3 -5 -1 -10 4 -10 6 0 11 5 11 10 0 6 -2 10 -4 10 -3 0
-8 -4 -11 -10z"/>
<path d="M2876 162 c-3 -5 1 -9 9 -9 8 0 12 4 9 9 -3 4 -7 8 -9 8 -2 0 -6 -4
-9 -8z"/>
<path d="M2930 166 c0 -2 7 -7 16 -10 8 -3 12 -2 9 4 -6 10 -25 14 -25 6z"/>
<path d="M3355 140 c3 -5 8 -10 11 -10 2 0 4 5 4 10 0 6 -5 10 -11 10 -5 0 -7
-4 -4 -10z"/>
<path d="M2656 118 c3 -5 10 -6 15 -3 13 9 11 12 -6 12 -8 0 -12 -4 -9 -9z"/>
<path d="M2770 120 c0 -5 5 -10 11 -10 5 0 7 5 4 10 -3 6 -8 10 -11 10 -2 0
-4 -4 -4 -10z"/>
<path d="M3295 120 c3 -5 8 -10 11 -10 2 0 4 5 4 10 0 6 -5 10 -11 10 -5 0 -7
-4 -4 -10z"/>
<path d="M3407 119 c7 -7 15 -10 18 -7 3 3 -2 9 -12 12 -14 6 -15 5 -6 -5z"/>
<path d="M4490 126 c0 -2 7 -7 16 -10 8 -3 12 -2 9 4 -6 10 -25 14 -25 6z"/>
<path d="M2910 99 c0 -5 5 -7 10 -4 6 3 10 8 10 11 0 2 -4 4 -10 4 -5 0 -10
-5 -10 -11z"/>
<path d="M3066 85 c-11 -8 -15 -15 -9 -15 6 0 16 7 23 15 16 19 11 19 -14 0z"/>
<path d="M3162 84 c10 -10 20 -16 22 -13 3 3 -5 11 -17 18 -21 13 -21 12 -5
-5z"/>
<path d="M4595 89 c-4 -6 -5 -12 -2 -15 2 -3 7 2 10 11 7 17 1 20 -8 4z"/>
<path d="M2420 80 c-9 -6 -10 -10 -3 -10 6 0 15 5 18 10 8 12 4 12 -15 0z"/>
<path d="M4550 81 c0 -6 4 -13 10 -16 6 -3 7 1 4 9 -7 18 -14 21 -14 7z"/>
<path d="M2765 40 c-3 -6 1 -7 9 -4 18 7 21 14 7 14 -6 0 -13 -4 -16 -10z"/>
<path d="M3410 39 c0 -5 5 -7 10 -4 6 3 10 8 10 11 0 2 -4 4 -10 4 -5 0 -10
-5 -10 -11z"/>
<path d="M3591 33 c7 -12 15 -20 18 -17 3 2 -3 12 -13 22 -17 16 -18 16 -5 -5z"/>
<path d="M2275 29 c-4 -6 -5 -12 -2 -15 2 -3 7 2 10 11 7 17 1 20 -8 4z"/>
<path d="M2436 27 c3 -10 9 -15 12 -12 3 3 0 11 -7 18 -10 9 -11 8 -5 -6z"/>
<path d="M3076 27 c3 -10 9 -15 12 -12 3 3 0 11 -7 18 -10 9 -11 8 -5 -6z"/>
<path d="M4195 29 c-4 -6 -5 -12 -2 -15 2 -3 7 2 10 11 7 17 1 20 -8 4z"/>
<path d="M3790 19 c0 -5 5 -7 10 -4 6 3 10 8 10 11 0 2 -4 4 -10 4 -5 0 -10
-5 -10 -11z"/>
</g>
</svg>
